<svg width="491" height="117" viewBox="0 0 491 117" fill="none" xmlns="http://www.w3.org/2000/svg">
<path d="M435.089 0.5C445.233 0.50004 454.442 2.70861 462.706 7.13281H462.707C470.981 11.5264 477.55 18.0258 482.411 26.6152H482.412C487.282 35.184 489.704 45.706 489.704 58.1572C489.704 70.6087 487.282 81.1492 482.412 89.7539V89.7549C477.55 98.3083 470.981 104.807 462.708 109.236L462.707 109.237C454.443 113.625 445.233 115.815 435.089 115.815C424.872 115.815 415.626 113.607 407.36 109.182L407.358 109.181C399.122 104.715 392.572 98.1982 387.711 89.6455L387.71 89.6436C382.877 81.0396 380.474 70.5363 380.474 58.1572C380.474 45.7066 382.876 35.1847 387.71 26.6162L388.171 25.8164C392.827 17.8862 398.969 11.7934 406.594 7.55078L407.361 7.13281C415.626 2.70797 424.873 0.5 435.089 0.5ZM31.709 2.02148V45.4873H70.6973V2.02148H101.906V114.294H70.6973V70.8281H31.709V114.294H0.5V2.02148H31.709ZM196.444 2.02148V27.3623H146.459V45.4873H192.315V70.8281H146.459V88.9531H196.228V114.294H115.25V2.02148H196.444ZM241.636 2.02148V88.9531H286.623V114.294H210.427V2.02148H241.636ZM329.043 2.02148V88.9531H374.03V114.294H297.834V2.02148H329.043ZM435.089 27.7969C430.172 27.7969 426.057 28.9713 422.715 31.293L422.714 31.2939C419.407 33.5806 416.872 36.9679 415.126 41.4912L415.127 41.4922C413.416 45.9826 412.552 51.5328 412.552 58.1572C412.552 64.7796 413.416 70.3473 415.126 74.874L415.462 75.7021C417.19 79.7795 419.61 82.8951 422.711 85.0742H422.712C426.054 87.3611 430.171 88.5186 435.089 88.5186C440.007 88.5185 444.104 87.3607 447.409 85.0752C450.754 82.7511 453.287 79.3623 454.996 74.877L454.997 74.875C456.743 70.3486 457.626 64.7807 457.626 58.1572C457.626 51.5338 456.743 45.9854 454.997 41.4961L454.995 41.4912C453.286 36.9694 450.753 33.5827 447.411 31.2959L447.406 31.292C444.101 28.9716 440.006 27.7969 435.089 27.7969Z" stroke="black"/>
</svg>
