<svg width="1285" height="116" viewBox="0 0 1285 116" fill="none" xmlns="http://www.w3.org/2000/svg">
<mask id="path-1-outside-1_819_10" maskUnits="userSpaceOnUse" x="0" y="0" width="1285" height="115" fill="black">
<rect fill="white" width="1285" height="115"/>
<path d="M574.071 58.1577C574.071 51.4929 573.183 45.8786 571.409 41.3146C569.67 36.7145 567.08 33.2372 563.639 30.8828C560.234 28.4922 556.033 27.2969 551.034 27.2969C546.035 27.2969 541.816 28.4922 538.374 30.8828C534.97 33.2372 532.38 36.7145 530.605 41.3146C528.866 45.8786 527.997 51.4929 527.997 58.1577C527.997 64.8224 528.866 70.4549 530.605 75.055C532.38 79.619 534.97 83.0962 538.374 85.4869C541.816 87.8413 546.035 89.0185 551.034 89.0185C556.033 89.0185 560.234 87.8413 563.639 85.4869C567.08 83.0962 569.67 79.619 571.409 75.055C573.183 70.4549 574.071 64.8224 574.071 58.1577Z"/>
<path d="M988.505 89.6705H1002.63C1007.7 89.6705 1011.51 88.7287 1014.04 86.8452C1016.58 84.9254 1017.84 82.1001 1017.84 78.3693C1017.84 75.7614 1017.25 73.5518 1016.05 71.7408C1014.86 69.9297 1013.15 68.5533 1010.94 67.6115C1008.77 66.6697 1006.14 66.1989 1003.07 66.1989H988.505V89.6705ZM988.505 47.5085H1000.89C1003.54 47.5085 1005.87 47.092 1007.9 46.2589C1009.93 45.4258 1011.51 44.2305 1012.63 42.6729C1013.79 41.0792 1014.37 39.1413 1014.37 36.8594C1014.37 33.4183 1013.14 30.7923 1010.67 28.9812C1008.21 27.1339 1005.09 26.2102 1001.33 26.2102H988.505V47.5085Z"/>
<path d="M1137.21 58.1577C1137.21 51.4929 1136.33 45.8786 1134.55 41.3146C1132.81 36.7145 1130.22 33.2372 1126.78 30.8828C1123.38 28.4922 1119.17 27.2969 1114.18 27.2969C1109.18 27.2969 1104.96 28.4922 1101.52 30.8828C1098.11 33.2372 1095.52 36.7145 1093.75 41.3146C1092.01 45.8786 1091.14 51.4929 1091.14 58.1577C1091.14 64.8224 1092.01 70.4549 1093.75 75.055C1095.52 79.619 1098.11 83.0962 1101.52 85.4869C1104.96 87.8413 1109.18 89.0185 1114.18 89.0185C1119.17 89.0185 1123.38 87.8413 1126.78 85.4869C1130.22 83.0962 1132.81 79.619 1134.55 75.055C1136.33 70.4549 1137.21 64.8224 1137.21 58.1577Z"/>
</mask>
<path d="M1 2.52131V1.52131H0V2.52131H1ZM31.2088 2.52131H32.2088V1.52131H31.2088V2.52131ZM31.2088 89.4531H30.2088V90.4531H31.2088V89.4531ZM76.196 89.4531H77.196V88.4531H76.196V89.4531ZM76.196 113.794H75.196V114.794H76.196V113.794ZM88.4072 113.794V114.794H89.4072V113.794H88.4072ZM88.4072 2.52131V1.52131H87.4072V2.52131H88.4072ZM168.602 2.52131H169.602V1.52131H168.602V2.52131ZM168.602 26.8622V27.8622H169.602V26.8622H168.602ZM118.616 26.8622V25.8622H117.616V26.8622H118.616ZM118.616 45.9872H117.616V46.9872H118.616V45.9872ZM164.473 45.9872H165.473V44.9872H164.473V45.9872ZM164.473 70.3281V71.3281H165.473V70.3281H164.473ZM118.616 70.3281V69.3281H117.616V70.3281H118.616ZM118.616 89.4531H117.616V90.4531H118.616V89.4531ZM168.385 89.4531H169.385V88.4531H168.385V89.4531ZM168.385 113.794H167.385V114.794H168.385V113.794ZM183.584 113.794V114.794H184.584V113.794H183.584ZM183.584 2.52131V1.52131H182.584V2.52131H183.584ZM263.779 2.52131H264.779V1.52131H263.779V2.52131ZM263.779 26.8622V27.8622H264.779V26.8622H263.779ZM213.793 26.8622V25.8622H212.793V26.8622H213.793ZM213.793 45.9872H212.793V46.9872H213.793V45.9872ZM259.649 45.9872H260.649V44.9872H259.649V45.9872ZM259.649 70.3281V71.3281H260.649V70.3281H259.649ZM213.793 70.3281V69.3281H212.793V70.3281H213.793ZM213.793 89.4531H212.793V90.4531H213.793V89.4531ZM263.561 89.4531H264.561V88.4531H263.561V89.4531ZM263.561 113.794H262.561V114.794H263.561V113.794ZM278.761 113.794V114.794H279.761V113.794H278.761ZM278.761 2.52131V1.52131H277.761V2.52131H278.761ZM308.97 2.52131H309.97V1.52131H308.97V2.52131ZM308.97 47.5085H307.97V48.5085H308.97V47.5085ZM310.491 47.5085V48.5085H310.993L311.293 48.1054L310.491 47.5085ZM343.96 2.52131V1.52131H343.457L343.157 1.92441L343.96 2.52131ZM379.167 2.52131L379.964 3.12577L381.181 1.52131H379.167V2.52131ZM341.569 52.0724L340.772 51.468L340.356 52.0168L340.72 52.6014L341.569 52.0724ZM380.036 113.794L379.188 114.323L379.481 114.794H380.036V113.794ZM318.967 72.0668L319.825 71.5529L319.068 70.2905L318.173 71.4583L318.967 72.0668ZM308.97 85.1065L308.176 84.4981L307.97 84.7673V85.1065H308.97ZM383.568 2.52131V1.52131H381.898L382.686 2.99346L383.568 2.52131ZM417.254 2.52131L418.155 2.08801L417.883 1.52131H417.254V2.52131ZM438.987 47.7259L438.086 48.1591L438.358 48.7259H438.987V47.7259ZM439.856 47.7259V48.7259H440.485L440.758 48.1592L439.856 47.7259ZM461.589 2.52131V1.52131H460.96L460.688 2.08801L461.589 2.52131ZM495.275 2.52131L496.157 2.99346L496.945 1.52131H495.275V2.52131ZM454.417 78.804L453.536 78.3318L453.417 78.553V78.804H454.417ZM454.417 113.794H453.417V114.794H454.417V113.794ZM424.426 113.794V114.794H425.426V113.794H424.426ZM424.426 78.804H425.426V78.553L425.307 78.3318L424.426 78.804ZM597.923 89.5075L598.792 90.0016L598.793 90L597.923 89.5075ZM578.417 108.795L577.945 107.914L577.417 108.197V108.795H578.417ZM523.542 108.741H524.542V108.146L524.018 107.862L523.542 108.741ZM504.091 89.3988L503.219 89.8885L503.221 89.8929L504.091 89.3988ZM504.091 26.8622L503.22 26.3697L503.22 26.3709L504.091 26.8622ZM523.542 7.57422L524.012 8.45657L524.014 8.45581L523.542 7.57422ZM578.417 7.57422L577.945 8.45582L577.948 8.45744L578.417 7.57422ZM597.923 26.8622L597.052 27.3548L597.053 27.3564L597.923 26.8622ZM684.977 2.52131V1.52131H683.977V2.52131H684.977ZM715.186 2.52131H716.186V1.52131H715.186V2.52131ZM709.1 95.81L708.264 95.2621L708.263 95.2633L709.1 95.81ZM692.257 110.099L691.834 109.193L691.257 109.463V110.099H692.257ZM641.946 110.099H642.946V109.463L642.369 109.193L641.946 110.099ZM625.103 95.81L624.261 96.351L624.265 96.3567L625.103 95.81ZM619.126 2.52131V1.52131H618.126V2.52131H619.126ZM649.335 2.52131H650.335V1.52131H649.335V2.52131ZM651.617 80.434L650.744 80.9226L650.747 80.9276L651.617 80.434ZM657.919 86.7365L657.426 87.6062L657.431 87.609L657.919 86.7365ZM676.392 86.7365L676.886 87.6062V87.6062L676.392 86.7365ZM682.695 80.434L683.565 80.9276L683.567 80.9226L682.695 80.434ZM825.82 2.52131H826.82V1.52131H825.82V2.52131ZM825.82 113.794H824.82V114.794H825.82V113.794ZM760.404 55.3324L761.228 54.7657L760.93 54.3324H760.404V55.3324ZM759.752 55.3324V54.3324H758.752V55.3324H759.752ZM729.543 113.794V114.794H730.543V113.794H729.543ZM729.543 2.52131V1.52131H728.543V2.52131H729.543ZM755.188 2.52131L756.015 1.9595L755.718 1.52131H755.188V2.52131ZM794.742 60.7656L793.915 61.3274L794.212 61.7656H794.742V60.7656ZM795.611 60.7656V61.7656H796.611V60.7656H795.611ZM795.611 2.52131V1.52131H794.611V2.52131H795.611ZM912.371 39.25L911.4 39.4882L911.587 40.25H912.371V39.25ZM910.144 34.1971L909.318 34.7611L909.325 34.7706L910.144 34.1971ZM906.341 30.4482L905.763 31.2646L905.774 31.2725L905.786 31.2802L906.341 30.4482ZM901.125 28.1119L900.857 29.0754L900.867 29.0783L900.878 29.081L901.125 28.1119ZM881.674 30.9371L881.113 30.109L881.109 30.1116L881.674 30.9371ZM873.524 41.4233L872.599 41.0418L872.597 41.0481L873.524 41.4233ZM873.415 74.6747L872.481 75.0322V75.0322L873.415 74.6747ZM881.348 85.3239L880.774 86.1427V86.1427L881.348 85.3239ZM905.906 87.0082L905.507 86.0913L905.503 86.093L905.906 87.0082ZM912.806 81.3033L911.955 80.7778V80.7778L912.806 81.3033ZM915.088 72.6101L915.192 71.6155L914.088 71.5005V72.6101H915.088ZM920.304 73.1534V74.1534L920.408 72.1588L920.304 73.1534ZM894.876 73.1534H893.876V74.1534H894.876V73.1534ZM894.876 51.6378V50.6378H893.876V51.6378H894.876ZM944.21 51.6378H945.21V50.6378H944.21V51.6378ZM937.745 93.0934L936.886 92.5802L936.886 92.5815L937.745 93.0934ZM920.032 109.61L919.578 108.719L919.032 108.998V109.61H920.032ZM865.7 108.415H866.7V107.83L866.19 107.543L865.7 108.415ZM846.521 88.7468L845.639 89.2193L845.641 89.2223L846.521 88.7468ZM843.858 33.9254L842.929 33.5557L842.928 33.5598L843.858 33.9254ZM855.594 15.9414L856.293 16.6562L856.296 16.6537L855.594 15.9414ZM872.926 4.80326L873.282 5.73768L873.287 5.73594L872.926 4.80326ZM912.371 3.82529L912.055 4.774L912.062 4.77637L912.371 3.82529ZM927.422 11.7578L926.801 12.5419L926.808 12.5475L927.422 11.7578ZM938.016 23.8739L938.884 23.3764V23.3764L938.016 23.8739ZM942.906 39.25V40.25H944.016L943.901 39.1467L942.906 39.25ZM958.296 113.794V114.794H959.296V113.794H958.296ZM958.296 2.52131V1.52131H957.296V2.52131H958.296ZM1027.9 5.94425L1027.53 6.87394L1027.53 6.87472L1027.9 5.94425ZM1040.99 15.6154L1040.17 16.1913L1040.18 16.196L1040.99 15.6154ZM1042.73 41.532L1041.85 41.0584L1041.84 41.0658L1042.73 41.532ZM1035.23 50.0078L1035.8 50.8284L1035.81 50.824L1035.23 50.0078ZM1023.93 54.6804L1023.73 53.7001L1022.93 53.8619V54.6804H1023.93ZM1023.93 55.767H1022.93V56.7299L1023.89 56.7663L1023.93 55.767ZM1036.97 59.4073L1036.47 60.2746L1036.48 60.278L1036.97 59.4073ZM1046.31 68.5895L1045.45 69.0993L1045.46 69.1028L1046.31 68.5895ZM1045.01 98.5266L1044.18 97.969L1044.18 97.9734L1045.01 98.5266ZM1031.54 109.719L1031.11 108.813V108.813L1031.54 109.719ZM1161.06 89.5075L1161.93 90.0016L1161.93 90L1161.06 89.5075ZM1141.56 108.795L1141.09 107.914L1140.56 108.197V108.795H1141.56ZM1086.68 108.741H1087.68V108.146L1087.16 107.862L1086.68 108.741ZM1067.23 89.3988L1066.36 89.8885L1066.36 89.8929L1067.23 89.3988ZM1067.23 26.8622L1066.36 26.3697L1066.36 26.3709L1067.23 26.8622ZM1086.68 7.57422L1087.15 8.45657L1087.16 8.45581L1086.68 7.57422ZM1141.56 7.57422L1141.09 8.45582L1141.09 8.45744L1141.56 7.57422ZM1161.06 26.8622L1160.19 27.3548L1160.19 27.3564L1161.06 26.8622ZM1182.27 113.794V114.794H1183.27V113.794H1182.27ZM1182.27 2.52131V1.52131H1181.27V2.52131H1182.27ZM1212.48 2.52131H1213.48V1.52131H1212.48V2.52131ZM1212.48 47.5085H1211.48V48.5085H1212.48V47.5085ZM1214 47.5085V48.5085H1214.5L1214.8 48.1054L1214 47.5085ZM1247.47 2.52131V1.52131H1246.96L1246.66 1.92441L1247.47 2.52131ZM1282.67 2.52131L1283.47 3.12577L1284.69 1.52131H1282.67V2.52131ZM1245.08 52.0724L1244.28 51.468L1243.86 52.0168L1244.23 52.6014L1245.08 52.0724ZM1222.47 72.0668L1223.33 71.5529L1222.58 70.2905L1221.68 71.4583L1222.47 72.0668ZM1212.48 85.1065L1211.68 84.4981L1211.48 84.7673V85.1065H1212.48ZM523.542 113.794V114.794H524.542V113.794H523.542ZM578.417 113.794H577.417V114.794H578.417V113.794ZM641.946 113.794V114.794H642.946V113.794H641.946ZM692.257 113.794H691.257V114.794H692.257V113.794ZM865.7 113.794V114.794H866.7V113.794H865.7ZM920.032 113.794H919.032V114.794H920.032V113.794ZM1086.68 113.794V114.794H1087.68V113.794H1086.68ZM1141.56 113.794H1140.56V114.794H1141.56V113.794ZM1 113.794H2V2.52131H1H0V113.794H1ZM1 2.52131V3.52131H31.2088V2.52131V1.52131H1V2.52131ZM31.2088 2.52131H30.2088V89.4531H31.2088H32.2088V2.52131H31.2088ZM31.2088 89.4531V90.4531H76.196V89.4531V88.4531H31.2088V89.4531ZM76.196 89.4531H75.196V113.794H76.196H77.196V89.4531H76.196ZM88.4072 113.794H89.4072V2.52131H88.4072H87.4072V113.794H88.4072ZM88.4072 2.52131V3.52131H168.602V2.52131V1.52131H88.4072V2.52131ZM168.602 2.52131H167.602V26.8622H168.602H169.602V2.52131H168.602ZM168.602 26.8622V25.8622H118.616V26.8622V27.8622H168.602V26.8622ZM118.616 26.8622H117.616V45.9872H118.616H119.616V26.8622H118.616ZM118.616 45.9872V46.9872H164.473V45.9872V44.9872H118.616V45.9872ZM164.473 45.9872H163.473V70.3281H164.473H165.473V45.9872H164.473ZM164.473 70.3281V69.3281H118.616V70.3281V71.3281H164.473V70.3281ZM118.616 70.3281H117.616V89.4531H118.616H119.616V70.3281H118.616ZM118.616 89.4531V90.4531H168.385V89.4531V88.4531H118.616V89.4531ZM168.385 89.4531H167.385V113.794H168.385H169.385V89.4531H168.385ZM183.584 113.794H184.584V2.52131H183.584H182.584V113.794H183.584ZM183.584 2.52131V3.52131H263.779V2.52131V1.52131H183.584V2.52131ZM263.779 2.52131H262.779V26.8622H263.779H264.779V2.52131H263.779ZM263.779 26.8622V25.8622H213.793V26.8622V27.8622H263.779V26.8622ZM213.793 26.8622H212.793V45.9872H213.793H214.793V26.8622H213.793ZM213.793 45.9872V46.9872H259.649V45.9872V44.9872H213.793V45.9872ZM259.649 45.9872H258.649V70.3281H259.649H260.649V45.9872H259.649ZM259.649 70.3281V69.3281H213.793V70.3281V71.3281H259.649V70.3281ZM213.793 70.3281H212.793V89.4531H213.793H214.793V70.3281H213.793ZM213.793 89.4531V90.4531H263.561V89.4531V88.4531H213.793V89.4531ZM263.561 89.4531H262.561V113.794H263.561H264.561V89.4531H263.561ZM278.761 113.794H279.761V2.52131H278.761H277.761V113.794H278.761ZM278.761 2.52131V3.52131H308.97V2.52131V1.52131H278.761V2.52131ZM308.97 2.52131H307.97V47.5085H308.97H309.97V2.52131H308.97ZM308.97 47.5085V48.5085H310.491V47.5085V46.5085H308.97V47.5085ZM310.491 47.5085L311.293 48.1054L344.762 3.1182L343.96 2.52131L343.157 1.92441L309.689 46.9116L310.491 47.5085ZM343.96 2.52131V3.52131H379.167V2.52131V1.52131H343.96V2.52131ZM379.167 2.52131L378.37 1.91684L340.772 51.468L341.569 52.0724L342.366 52.6769L379.964 3.12577L379.167 2.52131ZM341.569 52.0724L340.72 52.6014L379.188 114.323L380.036 113.794L380.885 113.265L342.418 51.5435L341.569 52.0724ZM343.96 113.794L344.817 113.28L319.825 71.5529L318.967 72.0668L318.109 72.5806L343.102 114.308L343.96 113.794ZM318.967 72.0668L318.173 71.4583L308.176 84.4981L308.97 85.1065L309.763 85.715L319.76 72.6752L318.967 72.0668ZM308.97 85.1065H307.97V113.794H308.97H309.97V85.1065H308.97ZM383.568 2.52131V3.52131H417.254V2.52131V1.52131H383.568V2.52131ZM417.254 2.52131L416.353 2.9546L438.086 48.1591L438.987 47.7259L439.888 47.2926L418.155 2.08801L417.254 2.52131ZM438.987 47.7259V48.7259H439.856V47.7259V46.7259H438.987V47.7259ZM439.856 47.7259L440.758 48.1592L462.49 2.9546L461.589 2.52131L460.688 2.08801L438.955 47.2926L439.856 47.7259ZM461.589 2.52131V3.52131H495.275V2.52131V1.52131H461.589V2.52131ZM495.275 2.52131L494.394 2.04916L453.536 78.3318L454.417 78.804L455.299 79.2761L496.157 2.99346L495.275 2.52131ZM454.417 78.804H453.417V113.794H454.417H455.417V78.804H454.417ZM424.426 113.794H425.426V78.804H424.426H423.426V113.794H424.426ZM424.426 78.804L425.307 78.3318L384.449 2.04916L383.568 2.52131L382.686 2.99346L423.544 79.2761L424.426 78.804ZM605.149 58.1577H604.149C604.149 70.418 601.765 80.688 597.052 89.0149L597.923 89.5075L598.793 90C603.715 81.3027 606.149 70.6729 606.149 58.1577H605.149ZM597.923 89.5075L597.053 89.0133C592.324 97.3337 585.957 103.625 577.945 107.914L578.417 108.795L578.889 109.677C587.25 105.201 593.886 98.6329 598.792 90.0016L597.923 89.5075ZM523.542 108.741L524.018 107.862C516.042 103.537 509.69 97.2268 504.96 88.9047L504.091 89.3988L503.221 89.8929C508.126 98.5225 514.742 105.107 523.065 109.62L523.542 108.741ZM504.091 89.3988L504.963 88.9091C500.285 80.5808 497.919 70.3456 497.919 58.1577H496.919H495.919C495.919 70.6005 498.334 81.1927 503.219 89.8885L504.091 89.3988ZM496.919 58.1577H497.919C497.919 45.896 500.285 35.6439 504.962 27.3535L504.091 26.8622L503.22 26.3709C498.334 35.0323 495.919 45.6438 495.919 58.1577H496.919ZM504.091 26.8622L504.961 27.3548C509.691 18.9977 516.04 12.7085 524.012 8.45657L523.542 7.57422L523.071 6.69187C514.744 11.1332 508.126 17.7025 503.22 26.3697L504.091 26.8622ZM523.542 7.57422L524.014 8.45581C532.042 4.15775 541.041 2 551.034 2V1V0C540.743 0 531.414 2.22506 523.07 6.69262L523.542 7.57422ZM551.034 1V2C560.953 2 569.917 4.15719 577.945 8.45581L578.417 7.57422L578.889 6.69262C570.546 2.22562 561.254 0 551.034 0V1ZM578.417 7.57422L577.948 8.45744C585.957 12.7096 592.323 18.9989 597.052 27.3548L597.923 26.8622L598.793 26.3697C593.887 17.7014 587.25 11.132 578.886 6.691L578.417 7.57422ZM597.923 26.8622L597.053 27.3564C601.765 35.6461 604.149 45.8971 604.149 58.1577H605.149H606.149C606.149 45.6427 603.715 35.0301 598.792 26.3681L597.923 26.8622ZM684.977 2.52131V3.52131H715.186V2.52131V1.52131H684.977V2.52131ZM715.186 2.52131H714.186V73.8054H715.186H716.186V2.52131H715.186ZM715.186 73.8054H714.186C714.186 82.1155 712.199 89.2537 708.264 95.2621L709.1 95.81L709.937 96.3579C714.115 89.9786 716.186 82.447 716.186 73.8054H715.186ZM709.1 95.81L708.263 95.2633C704.353 101.252 698.888 105.897 691.834 109.193L692.257 110.099L692.681 111.005C700.043 107.565 705.807 102.683 709.938 96.3567L709.1 95.81ZM641.946 110.099L642.369 109.193C635.315 105.897 629.85 101.252 625.94 95.2633L625.103 95.81L624.265 96.3567C628.396 102.683 634.16 107.565 641.522 111.005L641.946 110.099ZM625.103 95.81L625.944 95.269C622.078 89.2597 620.126 82.119 620.126 73.8054H619.126H618.126C618.126 82.4435 620.158 89.9725 624.262 96.351L625.103 95.81ZM619.126 73.8054H620.126V2.52131H619.126H618.126V73.8054H619.126ZM619.126 2.52131V3.52131H649.335V2.52131V1.52131H619.126V2.52131ZM649.335 2.52131H648.335V71.1974H649.335H650.335V2.52131H649.335ZM649.335 71.1974H648.335C648.335 74.7912 649.131 78.0414 650.744 80.9226L651.617 80.434L652.489 79.9454C651.06 77.3933 650.335 74.4858 650.335 71.1974H649.335ZM651.617 80.434L650.747 80.9276C652.357 83.765 654.588 85.9958 657.426 87.6062L657.919 86.7365L658.413 85.8668C655.89 84.4346 653.919 82.4637 652.486 79.9403L651.617 80.434ZM657.919 86.7365L657.431 87.609C660.312 89.2225 663.562 90.0185 667.156 90.0185V89.0185V88.0185C663.867 88.0185 660.96 87.2932 658.408 85.864L657.919 86.7365ZM667.156 89.0185V90.0185C670.784 90.0185 674.037 89.2234 676.886 87.6062L676.392 86.7365L675.899 85.8668C673.387 87.2922 670.483 88.0185 667.156 88.0185V89.0185ZM676.392 86.7365L676.886 87.6062C679.723 85.9958 681.954 83.765 683.565 80.9276L682.695 80.434L681.825 79.9403C680.393 82.4637 678.422 84.4346 675.899 85.8668L676.392 86.7365ZM682.695 80.434L683.567 80.9226C685.181 78.0414 685.977 74.7912 685.977 71.1974H684.977H683.977C683.977 74.4858 683.252 77.3933 681.822 79.9454L682.695 80.434ZM684.977 71.1974H685.977V2.52131H684.977H683.977V71.1974H684.977ZM825.82 2.52131H824.82V113.794H825.82H826.82V2.52131H825.82ZM800.61 113.794L801.434 113.227L761.228 54.7657L760.404 55.3324L759.58 55.899L799.786 114.361L800.61 113.794ZM760.404 55.3324V54.3324H759.752V55.3324V56.3324H760.404V55.3324ZM759.752 55.3324H758.752V113.794H759.752H760.752V55.3324H759.752ZM729.543 113.794H730.543V2.52131H729.543H728.543V113.794H729.543ZM729.543 2.52131V3.52131H755.188V2.52131V1.52131H729.543V2.52131ZM755.188 2.52131L754.361 3.08311L793.915 61.3274L794.742 60.7656L795.569 60.2038L756.015 1.9595L755.188 2.52131ZM794.742 60.7656V61.7656H795.611V60.7656V59.7656H794.742V60.7656ZM795.611 60.7656H796.611V2.52131H795.611H794.611V60.7656H795.611ZM795.611 2.52131V3.52131H825.82V2.52131V1.52131H795.611V2.52131ZM912.371 39.25L913.343 39.0118C912.846 36.9859 912.056 35.1851 910.963 33.6236L910.144 34.1971L909.325 34.7706C910.26 36.1068 910.955 37.6746 911.4 39.4882L912.371 39.25ZM910.144 34.1971L910.97 33.6331C909.882 32.0403 908.521 30.7003 906.895 29.6161L906.341 30.4482L905.786 31.2802C907.202 32.2245 908.377 33.3837 909.318 34.7611L910.144 34.1971ZM906.341 30.4482L906.918 29.6317C905.321 28.502 903.467 27.6762 901.371 27.1428L901.125 28.1119L900.878 29.081C902.767 29.5618 904.39 30.2935 905.763 31.2646L906.341 30.4482ZM901.125 28.1119L901.392 27.1483C899.337 26.5773 897.09 26.2969 894.659 26.2969V27.2969V28.2969C896.937 28.2969 899.001 28.5598 900.857 29.0754L901.125 28.1119ZM894.659 27.2969V26.2969C889.423 26.2969 884.891 27.552 881.113 30.109L881.674 30.9371L882.234 31.7653C885.628 29.4686 889.753 28.2969 894.659 28.2969V27.2969ZM881.674 30.9371L881.109 30.1116C877.376 32.6639 874.546 36.3254 872.599 41.0418L873.524 41.4233L874.448 41.8048C876.269 37.3934 878.872 34.0641 882.238 31.7627L881.674 30.9371ZM873.524 41.4233L872.597 41.0481C870.689 45.7619 869.753 51.4021 869.753 57.9403H870.753H871.753C871.753 51.5837 872.664 46.2126 874.451 41.7985L873.524 41.4233ZM870.753 57.9403H869.753C869.753 64.5462 870.651 70.2522 872.481 75.0322L873.415 74.6747L874.349 74.3172C872.629 69.8245 871.753 64.3743 871.753 57.9403H870.753ZM873.415 74.6747L872.481 75.0322C874.316 79.8248 877.072 83.548 880.774 86.1427L881.348 85.3239L881.922 84.505C878.596 82.1736 876.064 78.7974 874.349 74.3172L873.415 74.6747ZM881.348 85.3239L880.774 86.1427C884.489 88.7471 889.065 90.0185 894.442 90.0185V89.0185V88.0185C889.386 88.0185 885.234 86.8268 881.922 84.505L881.348 85.3239ZM894.442 89.0185V90.0185C899.131 90.0185 903.101 89.3366 906.309 87.9233L905.906 87.0082L905.503 86.093C902.626 87.3602 898.953 88.0185 894.442 88.0185V89.0185ZM905.906 87.0082L906.305 87.9251C909.54 86.5169 912.012 84.4918 913.657 81.8288L912.806 81.3033L911.955 80.7778C910.557 83.0409 908.429 84.819 905.507 86.0913L905.906 87.0082ZM912.806 81.3033L913.657 81.8288C915.29 79.1851 916.088 76.0995 916.088 72.6101H915.088H914.088C914.088 75.7855 913.365 78.4953 911.955 80.7778L912.806 81.3033ZM915.088 72.6101L914.984 73.6047L920.2 74.148L920.304 73.1534L920.408 72.1588L915.192 71.6155L915.088 72.6101ZM920.304 73.1534V72.1534H894.876V73.1534V74.1534H920.304V73.1534ZM894.876 73.1534H895.876V51.6378H894.876H893.876V73.1534H894.876ZM894.876 51.6378V52.6378H944.21V51.6378V50.6378H894.876V51.6378ZM944.21 51.6378H943.21V67.0682H944.21H945.21V51.6378H944.21ZM944.21 67.0682H943.21C943.21 77.0671 941.086 85.5566 936.886 92.5802L937.745 93.0934L938.603 93.6066C943.024 86.214 945.21 77.3534 945.21 67.0682H944.21ZM937.745 93.0934L936.886 92.5815C932.709 99.5891 926.947 104.964 919.578 108.719L920.032 109.61L920.486 110.501C928.186 106.577 934.232 100.941 938.604 93.6053L937.745 93.0934ZM865.7 108.415L866.19 107.543C858.174 103.039 851.913 96.6225 847.4 88.2714L846.521 88.7468L845.641 89.2223C850.328 97.8953 856.854 104.591 865.21 109.287L865.7 108.415ZM846.521 88.7468L847.402 88.2743C842.931 79.9356 840.675 69.9811 840.675 58.375H839.675H838.675C838.675 70.2405 840.982 80.5338 845.639 89.2193L846.521 88.7468ZM839.675 58.375H840.675C840.675 49.2747 842.054 41.2527 844.789 34.2911L843.858 33.9254L842.928 33.5598C840.084 40.797 838.675 49.0747 838.675 58.375H839.675ZM843.858 33.9254L844.787 34.2952C847.566 27.3134 851.404 21.4397 856.293 16.6562L855.594 15.9414L854.895 15.2266C849.787 20.2229 845.801 26.3386 842.929 33.5557L843.858 33.9254ZM855.594 15.9414L856.296 16.6537C861.196 11.8247 866.856 8.18763 873.282 5.73767L872.926 4.80326L872.57 3.86886C865.884 6.41748 859.989 10.2059 854.892 15.2292L855.594 15.9414ZM872.926 4.80326L873.287 5.73594C879.72 3.24783 886.624 2 894.007 2V1V0C886.394 0 879.244 1.28768 872.565 3.87058L872.926 4.80326ZM894.007 1V2C900.503 2 906.517 2.92786 912.055 4.77397L912.371 3.82529L912.688 2.87661C906.925 0.955666 900.695 0 894.007 0V1ZM912.371 3.82529L912.062 4.77637C917.645 6.58985 922.554 9.18017 926.801 12.5419L927.422 11.7578L928.042 10.9738C923.595 7.45335 918.471 4.75532 912.68 2.87421L912.371 3.82529ZM927.422 11.7578L926.808 12.5475C931.091 15.8749 934.535 19.8154 937.149 24.3715L938.016 23.8739L938.884 23.3764C936.137 18.5873 932.517 14.4504 928.035 10.9681L927.422 11.7578ZM938.016 23.8739L937.149 24.3715C939.757 28.918 941.346 33.9082 941.912 39.3533L942.906 39.25L943.901 39.1467C943.308 33.4355 941.636 28.175 938.884 23.3764L938.016 23.8739ZM942.906 39.25V38.25H912.371V39.25V40.25H942.906V39.25ZM958.296 113.794H959.296V2.52131H958.296H957.296V113.794H958.296ZM958.296 2.52131V3.52131H1006.54V2.52131V1.52131H958.296V2.52131ZM1006.54 2.52131V3.52131C1014.94 3.52131 1021.92 4.65211 1027.53 6.87393L1027.9 5.94425L1028.26 5.01457C1022.35 2.67247 1015.1 1.52131 1006.54 1.52131V2.52131ZM1027.9 5.94425L1027.53 6.87472C1033.18 9.10114 1037.37 12.2179 1040.17 16.1913L1040.99 15.6154L1041.81 15.0396C1038.74 10.6819 1034.2 7.35128 1028.26 5.01378L1027.9 5.94425ZM1040.99 15.6154L1040.18 16.196C1043.01 20.1743 1044.45 24.8743 1044.45 30.3395H1045.45H1046.45C1046.45 24.5036 1044.91 19.3874 1041.8 15.0348L1040.99 15.6154ZM1045.45 30.3395H1044.45C1044.45 34.2792 1043.57 37.8455 1041.85 41.0584L1042.73 41.532L1043.61 42.0055C1045.5 38.4812 1046.45 34.5859 1046.45 30.3395H1045.45ZM1042.73 41.532L1041.84 41.0658C1040.14 44.29 1037.75 46.9971 1034.65 49.1916L1035.23 50.0078L1035.81 50.824C1039.16 48.4546 1041.76 45.5112 1043.61 41.9981L1042.73 41.532ZM1035.23 50.0078L1034.66 49.1873C1031.56 51.3459 1027.92 52.8547 1023.73 53.7001L1023.93 54.6804L1024.13 55.6607C1028.56 54.7675 1032.45 53.1612 1035.8 50.8283L1035.23 50.0078ZM1023.93 54.6804H1022.93V55.767H1023.93H1024.93V54.6804H1023.93ZM1023.93 55.767L1023.89 56.7663C1028.52 56.9417 1032.71 58.1143 1036.47 60.2746L1036.97 59.4073L1037.47 58.5401C1033.41 56.2088 1028.9 54.9546 1023.97 54.7678L1023.93 55.767ZM1036.97 59.4073L1036.48 60.278C1040.24 62.4004 1043.22 65.3359 1045.45 69.0993L1046.31 68.5895L1047.17 68.0797C1044.77 64.0192 1041.53 60.8332 1037.46 58.5366L1036.97 59.4073ZM1046.31 68.5895L1045.46 69.1028C1047.67 72.7996 1048.79 77.18 1048.79 82.2812H1049.79H1050.79C1050.79 76.8782 1049.6 72.1308 1047.17 68.0762L1046.31 68.5895ZM1049.79 82.2812H1048.79C1048.79 88.1813 1047.25 93.3997 1044.18 97.969L1045.01 98.5266L1045.84 99.0843C1049.15 94.1635 1050.79 88.5516 1050.79 82.2812H1049.79ZM1045.01 98.5266L1044.18 97.9734C1041.14 102.546 1036.8 106.163 1031.11 108.813L1031.54 109.719L1031.96 110.626C1037.93 107.842 1042.58 103.997 1045.84 99.0799L1045.01 98.5266ZM1031.54 109.719L1031.11 108.813C1025.44 111.454 1018.64 112.794 1010.67 112.794V113.794V114.794C1018.86 114.794 1025.97 113.417 1031.96 110.626L1031.54 109.719ZM1168.29 58.1577H1167.29C1167.29 70.418 1164.91 80.688 1160.19 89.0149L1161.06 89.5075L1161.93 90C1166.86 81.3027 1169.29 70.6729 1169.29 58.1577H1168.29ZM1161.06 89.5075L1160.19 89.0133C1155.47 97.3337 1149.1 103.625 1141.09 107.914L1141.56 108.795L1142.03 109.677C1150.39 105.201 1157.03 98.6329 1161.93 90.0016L1161.06 89.5075ZM1086.68 108.741L1087.16 107.862C1079.18 103.537 1072.83 97.2268 1068.1 88.9047L1067.23 89.3988L1066.36 89.8929C1071.27 98.5225 1077.88 105.107 1086.21 109.62L1086.68 108.741ZM1067.23 89.3988L1068.1 88.9091C1063.43 80.5808 1061.06 70.3456 1061.06 58.1577H1060.06H1059.06C1059.06 70.6005 1061.48 81.1927 1066.36 89.8885L1067.23 89.3988ZM1060.06 58.1577H1061.06C1061.06 45.896 1063.43 35.6439 1068.1 27.3535L1067.23 26.8622L1066.36 26.3709C1061.48 35.0323 1059.06 45.6438 1059.06 58.1577H1060.06ZM1067.23 26.8622L1068.1 27.3548C1072.83 18.9977 1079.18 12.7085 1087.15 8.45657L1086.68 7.57422L1086.21 6.69187C1077.89 11.1332 1071.27 17.7025 1066.36 26.3697L1067.23 26.8622ZM1086.68 7.57422L1087.16 8.45581C1095.18 4.15775 1104.18 2 1114.18 2V1V0C1103.88 0 1094.56 2.22506 1086.21 6.69262L1086.68 7.57422ZM1114.18 1V2C1124.09 2 1133.06 4.15719 1141.09 8.45581L1141.56 7.57422L1142.03 6.69262C1133.69 2.22562 1124.4 0 1114.18 0V1ZM1141.56 7.57422L1141.09 8.45744C1149.1 12.7096 1155.46 18.9989 1160.19 27.3548L1161.06 26.8622L1161.93 26.3697C1157.03 17.7014 1150.39 11.132 1142.03 6.691L1141.56 7.57422ZM1161.06 26.8622L1160.19 27.3564C1164.91 35.6461 1167.29 45.8971 1167.29 58.1577H1168.29H1169.29C1169.29 45.6427 1166.86 35.0301 1161.93 26.3681L1161.06 26.8622ZM1182.27 113.794H1183.27V2.52131H1182.27H1181.27V113.794H1182.27ZM1182.27 2.52131V3.52131H1212.48V2.52131V1.52131H1182.27V2.52131ZM1212.48 2.52131H1211.48V47.5085H1212.48H1213.48V2.52131H1212.48ZM1212.48 47.5085V48.5085H1214V47.5085V46.5085H1212.48V47.5085ZM1214 47.5085L1214.8 48.1054L1248.27 3.1182L1247.47 2.52131L1246.66 1.92441L1213.2 46.9116L1214 47.5085ZM1247.47 2.52131V3.52131H1282.67V2.52131V1.52131H1247.47V2.52131ZM1282.67 2.52131L1281.88 1.91684L1244.28 51.468L1245.08 52.0724L1245.87 52.6769L1283.47 3.12577L1282.67 2.52131ZM1245.08 52.0724L1244.23 52.6014L1282.69 114.323L1283.54 113.794L1284.39 113.265L1245.92 51.5435L1245.08 52.0724ZM1247.47 113.794L1248.32 113.28L1223.33 71.5529L1222.47 72.0668L1221.62 72.5806L1246.61 114.308L1247.47 113.794ZM1222.47 72.0668L1221.68 71.4583L1211.68 84.4981L1212.48 85.1065L1213.27 85.715L1223.27 72.6752L1222.47 72.0668ZM1212.48 85.1065H1211.48V113.794H1212.48H1213.48V85.1065H1212.48ZM76.196 113.794V114.794H88.4072V113.794V112.794H76.196V113.794ZM168.385 113.794V114.794H183.584V113.794V112.794H168.385V113.794ZM263.561 113.794V114.794H278.761V113.794V112.794H263.561V113.794ZM380.036 113.794V114.794H424.426V113.794V112.794H380.036V113.794ZM454.417 113.794V114.794H523.542V113.794V112.794H454.417V113.794ZM523.542 113.794H524.542V108.741H523.542H522.542V113.794H523.542ZM578.417 108.795H577.417V113.794H578.417H579.417V108.795H578.417ZM578.417 113.794V114.794H641.946V113.794V112.794H578.417V113.794ZM641.946 113.794H642.946V110.099H641.946H640.946V113.794H641.946ZM692.257 110.099H691.257V113.794H692.257H693.257V110.099H692.257ZM692.257 113.794V114.794H729.543V113.794V112.794H692.257V113.794ZM825.82 113.794V114.794H865.7V113.794V112.794H825.82V113.794ZM865.7 113.794H866.7V108.415H865.7H864.7V113.794H865.7ZM920.032 109.61H919.032V113.794H920.032H921.032V109.61H920.032ZM920.032 113.794V114.794H958.296V113.794V112.794H920.032V113.794ZM1010.67 113.794V114.794H1086.68V113.794V112.794H1010.67V113.794ZM1086.68 113.794H1087.68V108.741H1086.68H1085.68V113.794H1086.68ZM1141.56 108.795H1140.56V113.794H1141.56H1142.56V108.795H1141.56ZM1141.56 113.794V114.794H1182.27V113.794V112.794H1141.56V113.794ZM571.409 41.3146L569.538 42.0217L569.541 42.0306L569.545 42.0395L571.409 41.3146ZM563.639 30.8828L562.49 32.5196L562.5 32.5266L562.51 32.5334L563.639 30.8828ZM538.374 30.8828L539.512 32.5278L539.516 32.5253L538.374 30.8828ZM530.605 41.3146L528.739 40.5947L528.736 40.6026L530.605 41.3146ZM530.605 75.055L528.734 75.7621L528.737 75.771L528.741 75.7799L530.605 75.055ZM538.374 85.4869L537.225 87.1237L537.235 87.1306L537.245 87.1375L538.374 85.4869ZM563.639 85.4869L564.777 87.1319L564.78 87.1294L563.639 85.4869ZM571.409 75.055L569.543 74.3351L569.54 74.3431L571.409 75.055ZM988.505 89.6705H986.505V91.6705H988.505V89.6705ZM1014.04 86.8452L1015.23 88.4507L1015.24 88.4452L1015.25 88.4397L1014.04 86.8452ZM1010.94 67.6115L1010.15 69.4467L1010.16 69.4514L1010.94 67.6115ZM988.505 66.1989V64.1989H986.505V66.1989H988.505ZM988.505 47.5085H986.505V49.5085H988.505V47.5085ZM1007.9 46.2589L1008.66 48.1089V48.1089L1007.9 46.2589ZM1012.63 42.6729L1011.01 41.4966L1011.01 41.5033L1012.63 42.6729ZM1010.67 28.9812L1009.47 30.5812L1009.48 30.5869L1009.49 30.5925L1010.67 28.9812ZM988.505 26.2102V24.2102H986.505V26.2102H988.505ZM1134.55 41.3146L1132.68 42.0217L1132.68 42.0306L1132.69 42.0395L1134.55 41.3146ZM1126.78 30.8828L1125.63 32.5196L1125.64 32.5266L1125.65 32.5334L1126.78 30.8828ZM1101.52 30.8828L1102.65 32.5278L1102.66 32.5253L1101.52 30.8828ZM1093.75 41.3146L1091.88 40.5947L1091.88 40.6026L1093.75 41.3146ZM1093.75 75.055L1091.88 75.7621L1091.88 75.771L1091.88 75.7799L1093.75 75.055ZM1101.52 85.4869L1100.37 87.1237L1100.38 87.1306L1100.39 87.1375L1101.52 85.4869ZM1126.78 85.4869L1127.92 87.1319L1127.92 87.1294L1126.78 85.4869ZM1134.55 75.055L1132.68 74.3351L1132.68 74.3431L1134.55 75.055ZM574.071 58.1577H576.071C576.071 51.3287 575.163 45.4517 573.273 40.5897L571.409 41.3146L569.545 42.0395C571.203 46.3054 572.071 51.6571 572.071 58.1577H574.071ZM571.409 41.3146L573.279 40.6076C571.423 35.6949 568.605 31.857 564.768 29.2322L563.639 30.8828L562.51 32.5334C565.556 34.6174 567.917 37.7341 569.538 42.0217L571.409 41.3146ZM563.639 30.8828L564.788 29.246C560.984 26.5747 556.359 25.2969 551.034 25.2969V27.2969V29.2969C555.706 29.2969 559.485 30.4097 562.49 32.5196L563.639 30.8828ZM551.034 27.2969V25.2969C545.708 25.2969 541.07 26.5749 537.233 29.2403L538.374 30.8828L539.516 32.5253C542.561 30.4095 546.363 29.2969 551.034 29.2969V27.2969ZM538.374 30.8828L537.237 29.2378C533.443 31.8612 530.63 35.6931 528.739 40.5947L530.605 41.3146L532.471 42.0346C534.129 37.7359 536.496 34.6132 539.512 32.5278L538.374 30.8828ZM530.605 41.3146L528.736 40.6026C526.885 45.4603 525.997 51.3324 525.997 58.1577H527.997H529.997C529.997 51.6534 530.847 46.2968 532.474 42.0266L530.605 41.3146ZM527.997 58.1577H525.997C525.997 64.9837 526.886 70.8714 528.734 75.7621L530.605 75.055L532.476 74.348C530.847 70.0384 529.997 64.6612 529.997 58.1577H527.997ZM530.605 75.055L528.741 75.7799C530.633 80.6452 533.444 84.4685 537.225 87.1237L538.374 85.4869L539.524 83.85C536.496 81.724 534.127 78.5927 532.469 74.3302L530.605 75.055ZM538.374 85.4869L537.245 87.1375C541.08 89.7616 545.714 91.0185 551.034 91.0185V89.0185V87.0185C546.357 87.0185 542.551 85.921 539.504 83.8363L538.374 85.4869ZM551.034 89.0185V91.0185C556.353 91.0185 560.973 89.7618 564.777 87.1319L563.639 85.4869L562.502 83.8419C559.495 85.9207 555.712 87.0185 551.034 87.0185V89.0185ZM563.639 85.4869L564.78 87.1294C568.604 84.4727 571.42 80.6433 573.278 75.767L571.409 75.055L569.54 74.3431C567.92 78.5946 565.556 81.7197 562.498 83.8443L563.639 85.4869ZM571.409 75.055L573.274 75.775C575.163 70.88 576.071 64.9875 576.071 58.1577H574.071H572.071C572.071 64.6574 571.204 70.0298 569.543 74.3351L571.409 75.055ZM988.505 89.6705V91.6705H1002.63V89.6705V87.6705H988.505V89.6705ZM1002.63 89.6705V91.6705C1007.89 91.6705 1012.2 90.7039 1015.23 88.4507L1014.04 86.8452L1012.85 85.2397C1010.81 86.7535 1007.51 87.6705 1002.63 87.6705V89.6705ZM1014.04 86.8452L1015.25 88.4397C1018.37 86.0736 1019.84 82.6039 1019.84 78.3693H1017.84H1015.84C1015.84 81.5964 1014.78 83.7773 1012.83 85.2507L1014.04 86.8452ZM1017.84 78.3693H1019.84C1019.84 75.4498 1019.17 72.8381 1017.72 70.6391L1016.05 71.7408L1014.38 72.8425C1015.32 74.2656 1015.84 76.073 1015.84 78.3693H1017.84ZM1016.05 71.7408L1017.72 70.6391C1016.29 68.4659 1014.26 66.8502 1011.73 65.7717L1010.94 67.6115L1010.16 69.4514C1012.05 70.2563 1013.43 71.3935 1014.38 72.8425L1016.05 71.7408ZM1010.94 67.6115L1011.74 65.7764C1009.25 64.6985 1006.34 64.1989 1003.07 64.1989V66.1989V68.1989C1005.95 68.1989 1008.29 68.641 1010.15 69.4466L1010.94 67.6115ZM1003.07 66.1989V64.1989H988.505V66.1989V68.1989H1003.07V66.1989ZM988.505 66.1989H986.505V89.6705H988.505H990.505V66.1989H988.505ZM988.505 47.5085V49.5085H1000.89V47.5085V45.5085H988.505V47.5085ZM1000.89 47.5085V49.5085C1003.74 49.5085 1006.35 49.0592 1008.66 48.1089L1007.9 46.2589L1007.14 44.4088C1005.4 45.1248 1003.33 45.5085 1000.89 45.5085V47.5085ZM1007.9 46.2589L1008.66 48.1089C1010.98 47.1546 1012.88 45.7441 1014.25 43.8425L1012.63 42.6729L1011.01 41.5033C1010.13 42.7168 1008.87 43.697 1007.14 44.4088L1007.9 46.2589ZM1012.63 42.6729L1014.25 43.8493C1015.69 41.8617 1016.37 39.4949 1016.37 36.8594H1014.37H1012.37C1012.37 38.7878 1011.88 40.2967 1011.01 41.4966L1012.63 42.6729ZM1014.37 36.8594H1016.37C1016.37 32.874 1014.9 29.6091 1011.86 27.3699L1010.67 28.9812L1009.49 30.5925C1011.37 31.9754 1012.37 33.9626 1012.37 36.8594H1014.37ZM1010.67 28.9812L1011.87 27.3812C1008.99 25.2206 1005.43 24.2102 1001.33 24.2102V26.2102V28.2102C1004.76 28.2102 1007.43 29.0472 1009.47 30.5812L1010.67 28.9812ZM1001.33 26.2102V24.2102H988.505V26.2102V28.2102H1001.33V26.2102ZM988.505 26.2102H986.505V47.5085H988.505H990.505V26.2102H988.505ZM1137.21 58.1577H1139.21C1139.21 51.3287 1138.3 45.4518 1136.41 40.5897L1134.55 41.3146L1132.69 42.0395C1134.35 46.3054 1135.21 51.6571 1135.21 58.1577H1137.21ZM1134.55 41.3146L1136.42 40.6076C1134.56 35.6949 1131.75 31.857 1127.91 29.2322L1126.78 30.8828L1125.65 32.5334C1128.7 34.6174 1131.06 37.7341 1132.68 42.0217L1134.55 41.3146ZM1126.78 30.8828L1127.93 29.246C1124.13 26.5747 1119.5 25.2969 1114.18 25.2969V27.2969V29.2969C1118.85 29.2969 1122.63 30.4097 1125.63 32.5196L1126.78 30.8828ZM1114.18 27.2969V25.2969C1108.85 25.2969 1104.21 26.5749 1100.38 29.2403L1101.52 30.8828L1102.66 32.5253C1105.7 30.4095 1109.5 29.2969 1114.18 29.2969V27.2969ZM1101.52 30.8828L1100.38 29.2378C1096.58 31.8612 1093.77 35.6931 1091.88 40.5947L1093.75 41.3146L1095.61 42.0346C1097.27 37.7359 1099.64 34.6132 1102.65 32.5278L1101.52 30.8828ZM1093.75 41.3146L1091.88 40.6026C1090.03 45.4603 1089.14 51.3324 1089.14 58.1577H1091.14H1093.14C1093.14 51.6534 1093.99 46.2968 1095.62 42.0266L1093.75 41.3146ZM1091.14 58.1577H1089.14C1089.14 64.9837 1090.03 70.8715 1091.88 75.7621L1093.75 75.055L1095.62 74.348C1093.99 70.0383 1093.14 64.6612 1093.14 58.1577H1091.14ZM1093.75 75.055L1091.88 75.7799C1093.77 80.6452 1096.59 84.4685 1100.37 87.1237L1101.52 85.4869L1102.67 83.85C1099.64 81.724 1097.27 78.5927 1095.61 74.3302L1093.75 75.055ZM1101.52 85.4869L1100.39 87.1375C1104.22 89.7616 1108.86 91.0185 1114.18 91.0185V89.0185V87.0185C1109.5 87.0185 1105.69 85.921 1102.65 83.8363L1101.52 85.4869ZM1114.18 89.0185V91.0185C1119.49 91.0185 1124.11 89.7618 1127.92 87.1319L1126.78 85.4869L1125.64 83.8419C1122.64 85.9207 1118.85 87.0185 1114.18 87.0185V89.0185ZM1126.78 85.4869L1127.92 87.1294C1131.75 84.4727 1134.56 80.6433 1136.42 75.767L1134.55 75.055L1132.68 74.3431C1131.06 78.5946 1128.7 81.7197 1125.64 83.8443L1126.78 85.4869ZM1134.55 75.055L1136.42 75.775C1138.3 70.88 1139.21 64.9874 1139.21 58.1577H1137.21H1135.21C1135.21 64.6574 1134.35 70.0299 1132.68 74.3351L1134.55 75.055Z" fill="white" mask="url(#path-1-outside-1_819_10)"/>
</svg>
